<svg width="36" height="36" viewBox="0 0 36 36" fill="none" xmlns="http://www.w3.org/2000/svg">
<g id="bxs-store-alt.svg">
<path id="Vector" d="M28.5 3H7.5C5.019 3 3 5.019 3 7.5V11.7465C3 13.326 3.573 14.7615 4.5 15.8655V30C4.5 30.3978 4.65804 30.7794 4.93934 31.0607C5.22064 31.342 5.60218 31.5 6 31.5H18C18.3978 31.5 18.7794 31.342 19.0607 31.0607C19.342 30.7794 19.5 30.3978 19.5 30V22.5H25.5V30C25.5 30.3978 25.658 30.7794 25.9393 31.0607C26.2206 31.342 26.6022 31.5 27 31.5H30C30.3978 31.5 30.7794 31.342 31.0607 31.0607C31.342 30.7794 31.5 30.3978 31.5 30V15.864C32.427 14.7615 33 13.326 33 11.745V7.5C33 5.019 30.981 3 28.5 3ZM30 7.5V11.7465C30 13.4565 28.7265 14.9145 27.1635 14.997L27 15C25.3455 15 24 13.6545 24 12V6H28.5C29.328 6 30 6.6735 30 7.5ZM15 12V6H21V12C21 13.6545 19.6545 15 18 15C16.3455 15 15 13.6545 15 12ZM6 7.5C6 6.6735 6.672 6 7.5 6H12V12C12 13.6545 10.6545 15 9 15L8.8365 14.9955C7.2735 14.9145 6 13.4565 6 11.7465V7.5ZM15 24H9V19.5H15V24Z" fill="white"/>
</g>
</svg>
